<svg xmlns="http://www.w3.org/2000/svg" xmlns:xlink="http://www.w3.org/1999/xlink" viewBox="0,0,256,256" width="48px" height="48px"><defs><linearGradient x1="20.601" y1="4.721" x2="27.399" y2="43.279" gradientUnits="userSpaceOnUse" id="color-1"><stop offset="0" stop-color="#ffef00"></stop><stop offset="1" stop-color="#ffd000"></stop></linearGradient></defs><g fill="none" fill-rule="nonzero" stroke="none" stroke-width="none" stroke-linecap="butt" stroke-linejoin="miter" stroke-miterlimit="10" stroke-dasharray="" stroke-dashoffset="0" font-family="none" font-weight="none" font-size="none" text-anchor="none" style="mix-blend-mode: normal"><g transform="scale(5.33333,5.33333)"><path d="M34.017,41.99l-20,0.019c-4.4,0.004 -8.003,-3.592 -8.008,-7.992l-0.019,-20c-0.004,-4.4 3.592,-8.003 7.992,-8.008l20,-0.019c4.4,-0.004 8.003,3.592 8.008,7.992l0.019,20c0.005,4.401 -3.592,8.004 -7.992,8.008z" fill="url(#color-1)" stroke="none" stroke-width="1"></path><path d="M14.613,20.505c-0.168,0 -0.342,0.039 -0.503,0.12c-0.265,0.132 -0.463,0.36 -0.557,0.641c-0.151,0.453 0.004,0.95 0.386,1.236l3.676,2.296l-0.143,0.382c-0.066,0.179 -1.67,4.403 -4.703,6.057c-0.161,0.088 -0.264,0.206 -0.274,0.317c-0.011,0.112 0.078,0.213 0.155,0.277c0.656,0.549 1.334,0.939 2.685,1.187l0.409,0.075l0.001,0.416c0.002,0.608 0.195,1.251 0.375,1.251c0.893,0 2.751,0 4.608,0.928c1.03,0.515 2.472,0.823 3.271,0.823c0.799,0 2.241,-0.308 3.271,-0.823c1.856,-0.928 3.715,-0.928 4.608,-0.928c0.181,0 0.374,-0.643 0.375,-1.251l0.001,-0.416l0.409,-0.075c1.351,-0.247 2.029,-0.637 2.686,-1.187c0.077,-0.064 0.166,-0.165 0.155,-0.277c-0.011,-0.111 -0.114,-0.229 -0.274,-0.317c-3.032,-1.654 -4.636,-5.878 -4.703,-6.057l-0.143,-0.382l3.71,-2.32c0.347,-0.263 0.502,-0.759 0.351,-1.212c-0.093,-0.281 -0.291,-0.508 -0.556,-0.641c-0.264,-0.133 -0.564,-0.153 -0.846,-0.06l-2.546,1.042v-3.507c0,-3.636 -2.914,-6.594 -6.496,-6.594c-3.586,0 -6.5,2.958 -6.5,6.594v3.508l-2.576,-1.053c-0.097,-0.033 -0.203,-0.05 -0.312,-0.05z" fill="#000000" stroke="none" stroke-width="1" opacity="0.07"></path><path d="M24,37.011c0.868,0 2.387,-0.322 3.494,-0.875c1.751,-0.875 3.509,-0.875 4.384,-0.875c0.875,0 0.875,-1.751 0.875,-1.751c1.391,-0.254 2.156,-0.658 2.917,-1.295c0.531,-0.445 0.407,-1.085 -0.201,-1.416c-2.903,-1.583 -4.474,-5.793 -4.474,-5.793l3.364,-2.104c0.554,-0.415 0.779,-1.138 0.561,-1.795v0c-0.281,-0.843 -1.193,-1.298 -2.035,-1.016l-1.887,0.771v-2.762c0,-3.864 -3.132,-7.094 -6.996,-7.094v0h-0.004v0c-3.864,0 -6.996,3.23 -6.996,7.094v2.763l-1.887,-0.771c-0.843,-0.282 -1.754,0.173 -2.035,1.016v0c-0.219,0.656 0.007,1.379 0.561,1.795l3.364,2.104c0,0 -1.57,4.209 -4.474,5.793c-0.608,0.331 -0.732,0.972 -0.201,1.416c0.76,0.637 1.526,1.041 2.917,1.295c0,0 0,1.751 0.875,1.751c0.875,0 2.633,0 4.384,0.875c1.107,0.552 2.626,0.874 3.494,0.874" fill="none" stroke="#1d1d1b" stroke-width="2" opacity="0.05"></path><path d="M24,37.011c0.868,0 2.387,-0.322 3.494,-0.875c1.751,-0.875 3.509,-0.875 4.384,-0.875c0.875,0 0.875,-1.751 0.875,-1.751c1.391,-0.254 2.156,-0.658 2.917,-1.295c0.531,-0.445 0.407,-1.085 -0.201,-1.416c-2.903,-1.583 -4.474,-5.793 -4.474,-5.793l3.364,-2.104c0.554,-0.415 0.779,-1.138 0.561,-1.795v0c-0.281,-0.843 -1.193,-1.298 -2.035,-1.016l-1.887,0.771v-2.762c0,-3.864 -3.132,-7.094 -6.996,-7.094v0h-0.004v0c-3.864,0 -6.996,3.23 -6.996,7.094v2.763l-1.887,-0.771c-0.843,-0.282 -1.754,0.173 -2.035,1.016v0c-0.219,0.656 0.007,1.379 0.561,1.795l3.364,2.104c0,0 -1.57,4.209 -4.474,5.793c-0.608,0.331 -0.732,0.972 -0.201,1.416c0.76,0.637 1.526,1.041 2.917,1.295c0,0 0,1.751 0.875,1.751c0.875,0 2.633,0 4.384,0.875c1.107,0.552 2.626,0.874 3.494,0.874" fill="none" stroke="#000000" stroke-width="1" opacity="0.07"></path><path d="M24,37.011c0.868,0 2.387,-0.322 3.494,-0.875c1.751,-0.875 3.509,-0.875 4.384,-0.875c0.875,0 0.875,-1.751 0.875,-1.751c1.391,-0.254 2.156,-0.658 2.917,-1.295c0.531,-0.445 0.407,-1.085 -0.201,-1.416c-2.903,-1.583 -4.474,-5.793 -4.474,-5.793l3.364,-2.104c0.554,-0.415 0.779,-1.138 0.561,-1.795v0c-0.281,-0.843 -1.193,-1.298 -2.035,-1.016l-1.887,0.771v-2.762c0,-3.864 -3.132,-7.094 -6.996,-7.094v0h-0.004v0c-3.864,0 -6.996,3.23 -6.996,7.094v2.763l-1.887,-0.771c-0.843,-0.282 -1.754,0.173 -2.035,1.016v0c-0.219,0.656 0.007,1.379 0.561,1.795l3.364,2.104c0,0 -1.57,4.209 -4.474,5.793c-0.608,0.331 -0.732,0.972 -0.201,1.416c0.76,0.637 1.526,1.041 2.917,1.295c0,0 0,1.751 0.875,1.751c0.875,0 2.633,0 4.384,0.875c1.107,0.552 2.626,0.874 3.494,0.874" fill="#ffffff" stroke="none" stroke-width="1"></path></g></g></svg>